<svg width="32" height="32" viewBox="0 0 32 32" fill="none" xmlns="http://www.w3.org/2000/svg">
<g clip-path="url(#clip0_1_112)">
<g clip-path="url(#clip1_1_112)">
<g clip-path="url(#clip2_1_112)">
<path d="M32 21.874C32 20.6534 31.2139 19.6225 30.125 19.2342V9.52206L32 8.749L16 2.32938L0 8.749L16 15.1687L28.25 10.2749V19.2342C27.1611 19.6225 26.375 20.6534 26.375 21.874C26.375 22.9915 27.035 23.9508 27.9813 24.4041L26.4236 29.0774L28.2015 29.6706L29.1875 26.7126L30.1735 29.6706L31.9514 29.0774L30.3937 24.4041C31.34 23.9508 32 22.9916 32 21.874Z" fill="white"/>
</g>
</g>
<g clip-path="url(#clip3_1_112)">
<g clip-path="url(#clip4_1_112)">
<path d="M16 17.1892L7.5625 13.8012V16.249C7.5625 18.9214 11.1898 20.9365 16 20.9365C20.8102 20.9365 24.4375 18.9214 24.4375 16.249V13.8012L16 17.1892Z" fill="white"/>
</g>
</g>
</g>
<defs>
<clipPath id="clip0_1_112">
<rect width="32" height="32" fill="white"/>
</clipPath>
<clipPath id="clip1_1_112">
<rect width="32" height="27.3413" fill="white" transform="translate(0 2.32938)"/>
</clipPath>
<clipPath id="clip2_1_112">
<rect width="32" height="27.3413" fill="white" transform="translate(0 2.32938)"/>
</clipPath>
<clipPath id="clip3_1_112">
<rect width="16.875" height="7.13525" fill="white" transform="translate(7.5625 13.8012)"/>
</clipPath>
<clipPath id="clip4_1_112">
<rect width="16.875" height="7.13525" fill="white" transform="translate(7.5625 13.8012)"/>
</clipPath>
</defs>
</svg>
