<svg width="119" height="151" viewBox="0 0 119 151" fill="none" xmlns="http://www.w3.org/2000/svg">
<path d="M31.7575 150.692C31.0589 150.692 30.3684 150.692 29.6699 150.644C18.9587 150.089 9.39582 144.752 4.71472 136.731C-0.905814 127.045 0.82045 115.085 2.96428 105.753C9.12975 79.3218 21.2373 54.6469 38.3656 33.6063C53.0271 15.6098 71.0771 -2.29826 93.4548 1.30265C108.068 3.65771 116.459 14.6774 118.41 34.0484C122.915 78.9713 97.8951 124.071 57.5718 143.796C48.0811 148.425 39.6021 150.692 31.7575 150.692ZM5.87893 106.428C3.84751 115.221 2.17742 126.442 7.2921 135.219C11.4674 142.381 20.0989 147.139 29.7742 147.646C37.7313 148.056 46.3388 145.91 56.2068 141.095C95.4221 121.941 119.759 78.047 115.375 34.3458C113.584 16.502 106.029 6.37442 92.8928 4.26853C71.9523 0.908756 54.7294 18.1658 40.6058 35.5032C23.7634 56.1886 11.8588 80.4488 5.79866 106.436L5.87893 106.428Z" fill="#3C0506"/>
</svg>
