<svg width="154" height="264" viewBox="0 0 154 264" fill="none" xmlns="http://www.w3.org/2000/svg">
<path d="M56.4656 263.419C43.8275 263.419 31.2134 259.537 21.7388 250.189C10.7787 239.378 6.48307 223.664 4.16259 212.717C-11.0931 140.224 18.1898 61.358 77.0609 16.4591C89.1852 7.21572 112.278 -6.65738 130.665 4.25788C139.409 9.45026 141.673 19.7708 143.664 28.8856C144.034 30.5655 144.395 32.2212 144.788 33.8127C149.489 52.2033 152.218 71.0429 152.93 90.0125C154.191 126.944 147.484 163.713 133.266 197.815C121.76 225.103 107.572 243.574 89.8195 254.28C79.7095 260.237 68.197 263.391 56.4656 263.419V263.419ZM78.8836 18.8544C20.9118 63.0619 -7.93764 140.723 7.1013 212.098C9.3174 222.627 13.4685 237.819 23.8424 248.051C41.2259 265.195 70.0031 262.728 88.2699 251.7C105.445 241.331 119.255 223.319 130.496 196.641C144.549 162.939 151.177 126.6 149.927 90.101C149.233 71.3436 146.541 52.7137 141.898 34.528C141.496 32.9204 141.095 31.2325 140.758 29.5205C138.806 20.5986 136.743 11.3632 129.155 6.83797C112.294 -3.1851 90.4217 10.0532 78.8996 18.8465L78.8836 18.8544Z" fill="white"/>
</svg>
