<svg width="479" height="395" viewBox="0 0 479 395" fill="none" xmlns="http://www.w3.org/2000/svg">
<path d="M350.283 117.205C301.304 136.56 239.831 115.669 212.757 70.4731C203.314 54.7111 197.613 36.4816 185.248 22.8897C168.194 4.15376 140.38 -2.46936 115.529 2.36936C90.6786 7.20808 68.6943 22.1986 51.2948 40.6452C12.5853 81.7663 -4.91864 141.245 2.4282 197.301C9.77504 253.356 41.0814 305.328 85.3873 340.372C129.693 375.417 186.292 393.807 242.762 394.499C308.932 395.302 376.852 370.755 420.78 321.211C449.421 288.899 466.813 247.512 473.975 204.912C481.137 162.312 478.447 118.483 470.265 76.0674C467.054 59.1881 462.806 29.5369 447.671 18.7904C432.07 7.70637 422.041 19.4817 418.564 33.8612C409.764 70.3766 385.949 103.123 350.283 117.205Z" fill="#BFCFCC"/>
</svg>
